<svg width="50" height="50" viewBox="0 0 50 50" fill="none" xmlns="http://www.w3.org/2000/svg">
<path d="M25 3.125C12.9199 3.125 3.125 12.9199 3.125 25C3.125 37.0801 12.9199 46.875 25 46.875C37.0801 46.875 46.875 37.0801 46.875 25C46.875 12.9199 37.0801 3.125 25 3.125ZM37.5 15.5127L35.5078 17.4219C35.332 17.5537 35.249 17.7686 35.2832 17.9785V32.0264C35.249 32.2412 35.332 32.4561 35.5078 32.583L37.4609 34.4922V34.917H27.6563V34.5117L29.6729 32.5537C29.873 32.3535 29.873 32.2949 29.873 31.9971V20.6299L24.2578 34.8682H23.501L16.9678 20.6299V30.1758C16.9092 30.5762 17.0508 30.9814 17.334 31.2695L19.9609 34.4482V34.873H12.5V34.4482L15.127 31.2695C15.2654 31.1266 15.3684 30.9532 15.4277 30.7632C15.4871 30.5733 15.5011 30.3721 15.4687 30.1758V19.1406C15.5029 18.833 15.3857 18.5352 15.1514 18.3252L12.8174 15.5127V15.0879H20.0684L25.6641 27.3682L30.5908 15.0977H37.5V15.5127Z" fill="#5CDB95"/>
</svg>
